<svg xmlns="http://www.w3.org/2000/svg" xmlns:xlink="http://www.w3.org/1999/xlink" width="300" zoomAndPan="magnify" viewBox="0 0 224.87999 225" height="300" preserveAspectRatio="xMidYMid meet" version="1.0"><defs><g/><clipPath id="5c2cfcf812"><path d="M 0 0.0585938 L 224.761719 0.0585938 L 224.761719 224.9375 L 0 224.9375 Z M 0 0.0585938 " clip-rule="nonzero"/></clipPath><clipPath id="a5b1782862"><path d="M 174.027344 129.558594 L 218.484375 129.558594 L 218.484375 174.015625 L 174.027344 174.015625 Z M 174.027344 129.558594 " clip-rule="nonzero"/></clipPath><clipPath id="9759c65f8b"><path d="M 196.257812 129.558594 C 183.980469 129.558594 174.027344 139.511719 174.027344 151.785156 C 174.027344 164.0625 183.980469 174.015625 196.257812 174.015625 C 208.53125 174.015625 218.484375 164.0625 218.484375 151.785156 C 218.484375 139.511719 208.53125 129.558594 196.257812 129.558594 Z M 196.257812 129.558594 " clip-rule="nonzero"/></clipPath></defs><g clip-path="url(#5c2cfcf812)"><path fill="#ffffff" d="M 0 0.0585938 L 224.878906 0.0585938 L 224.878906 224.941406 L 0 224.941406 Z M 0 0.0585938 " fill-opacity="1" fill-rule="nonzero"/><path fill="#ffffff" d="M 0 0.0585938 L 224.878906 0.0585938 L 224.878906 224.941406 L 0 224.941406 Z M 0 0.0585938 " fill-opacity="1" fill-rule="nonzero"/><rect x="-22.487999" width="269.855988" fill="#000000" y="-22.5" height="270" fill-opacity="1"/></g><g fill="#ffffff" fill-opacity="1"><g transform="translate(-1.332286, 172.661247)"><g><path d="M 39.515625 -52.75 L 39.515625 0 L 9.5625 0 L 9.5625 -131.453125 L 39.515625 -131.453125 L 39.515625 -79.03125 L 81.90625 -79.03125 L 81.90625 -131.453125 L 111.859375 -131.453125 L 111.859375 0 L 81.90625 0 L 81.90625 -52.75 Z M 39.515625 -52.75 "/></g></g></g><g fill="#ffffff" fill-opacity="1"><g transform="translate(120.082419, 172.661247)"><g><path d="M 9.5625 -131.453125 L 57.515625 -131.453125 C 70.898438 -131.453125 81.734375 -128 90.015625 -121.09375 C 98.304688 -114.195312 102.453125 -104.160156 102.453125 -90.984375 C 102.453125 -77.816406 98.253906 -67.488281 89.859375 -60 C 81.472656 -52.507812 70.691406 -48.765625 57.515625 -48.765625 L 39.515625 -48.765625 L 39.515625 0 L 9.5625 0 Z M 39.515625 -72.65625 L 47.96875 -72.65625 C 54.65625 -72.65625 60.148438 -74.007812 64.453125 -76.71875 C 68.753906 -79.425781 70.90625 -83.863281 70.90625 -90.03125 C 70.90625 -96.300781 68.753906 -100.789062 64.453125 -103.5 C 60.148438 -106.207031 54.65625 -107.5625 47.96875 -107.5625 L 39.515625 -107.5625 Z M 39.515625 -72.65625 "/></g></g></g><g clip-path="url(#a5b1782862)"><g clip-path="url(#9759c65f8b)"><path fill="#ff3131" d="M 174.027344 129.558594 L 218.484375 129.558594 L 218.484375 174.015625 L 174.027344 174.015625 Z M 174.027344 129.558594 " fill-opacity="1" fill-rule="nonzero"/></g></g></svg>