<svg xmlns="http://www.w3.org/2000/svg" xmlns:xlink="http://www.w3.org/1999/xlink" width="1500" zoomAndPan="magnify" viewBox="0 0 1125 149.999998" height="200" preserveAspectRatio="xMidYMid meet" version="1.0"><defs><g/></defs><g fill="#ffffff" fill-opacity="1"><g transform="translate(198.642948, 136.095895)"><g><path d="M 34.484375 -46.015625 L 34.484375 0 L 8.34375 0 L 8.34375 -114.703125 L 34.484375 -114.703125 L 34.484375 -68.953125 L 71.46875 -68.953125 L 71.46875 -114.703125 L 97.59375 -114.703125 L 97.59375 0 L 71.46875 0 L 71.46875 -46.015625 Z M 34.484375 -46.015625 "/></g></g></g><g fill="#ffffff" fill-opacity="1"><g transform="translate(304.584744, 136.095895)"><g><path d="M 34.484375 -114.703125 L 34.484375 0 L 8.34375 0 L 8.34375 -114.703125 Z M 34.484375 -114.703125 "/></g></g></g><g fill="#ffffff" fill-opacity="1"><g transform="translate(347.406359, 136.095895)"><g><path d="M 34.484375 -114.703125 L 34.484375 -22.9375 L 73.96875 -22.9375 L 73.96875 0 L 8.34375 0 L 8.34375 -114.703125 Z M 34.484375 -114.703125 "/></g></g></g><g fill="#ffffff" fill-opacity="1"><g transform="translate(425.95899, 136.095895)"><g><path d="M 34.484375 -114.703125 L 34.484375 -22.9375 L 73.96875 -22.9375 L 73.96875 0 L 8.34375 0 L 8.34375 -114.703125 Z M 34.484375 -114.703125 "/></g></g></g><g fill="#ffffff" fill-opacity="1"><g transform="translate(504.511643, 136.095895)"><g><path d="M 8.34375 -114.703125 L 50.1875 -114.703125 C 61.863281 -114.703125 71.316406 -111.6875 78.546875 -105.65625 C 85.773438 -99.632812 89.390625 -90.875 89.390625 -79.375 C 89.390625 -67.882812 85.726562 -58.875 78.40625 -52.34375 C 71.09375 -45.8125 61.6875 -42.546875 50.1875 -42.546875 L 34.484375 -42.546875 L 34.484375 0 L 8.34375 0 Z M 34.484375 -63.390625 L 41.84375 -63.390625 C 47.6875 -63.390625 52.484375 -64.570312 56.234375 -66.9375 C 59.992188 -69.300781 61.875 -73.171875 61.875 -78.546875 C 61.875 -84.015625 59.992188 -87.929688 56.234375 -90.296875 C 52.484375 -92.660156 47.6875 -93.84375 41.84375 -93.84375 L 34.484375 -93.84375 Z M 34.484375 -63.390625 "/></g></g></g><g fill="#ffffff" fill-opacity="1"><g transform="translate(597.106425, 136.095895)"><g><path d="M 34.484375 -71.1875 L 34.484375 0 L 8.34375 0 L 8.34375 -114.703125 L 34.484375 -114.703125 L 80.078125 -43.515625 L 80.359375 -43.515625 L 80.359375 -114.703125 L 106.5 -114.703125 L 106.5 0 L 80.359375 0 L 34.75 -71.1875 Z M 34.484375 -71.1875 "/></g></g></g><g fill="#ffffff" fill-opacity="1"><g transform="translate(711.946232, 136.095895)"><g><path d="M 1.109375 -91.765625 L 1.109375 -114.703125 L 81.75 -114.703125 L 81.75 -91.765625 L 54.5 -91.765625 L 54.5 0 L 28.359375 0 L 28.359375 -91.765625 Z M 1.109375 -91.765625 "/></g></g></g><g fill="#ffffff" fill-opacity="1"><g transform="translate(794.808868, 136.095895)"><g><path d="M 103.15625 0 L 97.734375 -67.984375 L 97.046875 -67.984375 L 73.546875 -0.6875 L 57.96875 -0.6875 L 34.484375 -67.984375 L 33.78125 -67.984375 L 28.359375 0 L 2.21875 0 L 12.515625 -114.703125 L 40.3125 -114.703125 L 65.765625 -48.515625 L 91.203125 -114.703125 L 119.015625 -114.703125 L 129.296875 0 Z M 103.15625 0 "/></g></g></g><path fill="#ff3131" d="M 978.003906 99.566406 C 978.496094 100.054688 978.960938 100.570312 979.402344 101.105469 C 979.84375 101.644531 980.253906 102.203125 980.640625 102.777344 C 981.027344 103.355469 981.382812 103.953125 981.710938 104.566406 C 982.039062 105.175781 982.335938 105.804688 982.601562 106.445312 C 982.867188 107.089844 983.101562 107.742188 983.304688 108.40625 C 983.503906 109.070312 983.671875 109.742188 983.808594 110.425781 C 983.945312 111.105469 984.046875 111.792969 984.113281 112.484375 C 984.183594 113.175781 984.214844 113.867188 984.214844 114.5625 C 984.214844 115.257812 984.183594 115.949219 984.113281 116.640625 C 984.046875 117.332031 983.945312 118.019531 983.808594 118.703125 C 983.671875 119.382812 983.503906 120.054688 983.304688 120.71875 C 983.101562 121.386719 982.867188 122.039062 982.601562 122.679688 C 982.335938 123.324219 982.039062 123.949219 981.710938 124.5625 C 981.382812 125.175781 981.027344 125.769531 980.640625 126.347656 C 980.253906 126.925781 979.84375 127.484375 979.402344 128.019531 C 978.960938 128.558594 978.496094 129.070312 978.003906 129.5625 C 977.511719 130.054688 977 130.519531 976.460938 130.960938 C 975.925781 131.402344 975.367188 131.8125 974.789062 132.199219 C 974.210938 132.585938 973.617188 132.941406 973.003906 133.269531 C 972.390625 133.597656 971.765625 133.894531 971.121094 134.160156 C 970.480469 134.425781 969.828125 134.660156 969.164062 134.863281 C 968.496094 135.0625 967.824219 135.230469 967.144531 135.367188 C 966.460938 135.503906 965.777344 135.605469 965.085938 135.671875 C 964.394531 135.742188 963.699219 135.773438 963.003906 135.773438 C 962.3125 135.773438 961.617188 135.742188 960.925781 135.671875 C 960.234375 135.605469 959.546875 135.503906 958.867188 135.367188 C 958.1875 135.230469 957.511719 135.0625 956.847656 134.863281 C 956.183594 134.660156 955.53125 134.425781 954.886719 134.160156 C 954.246094 133.894531 953.621094 133.597656 953.007812 133.269531 C 952.394531 132.941406 951.796875 132.585938 951.222656 132.199219 C 950.644531 131.816406 950.085938 131.402344 949.550781 130.960938 C 949.011719 130.519531 948.496094 130.054688 948.007812 129.5625 C 947.515625 129.070312 947.050781 128.558594 946.609375 128.019531 C 946.167969 127.484375 945.753906 126.925781 945.367188 126.347656 C 944.984375 125.769531 944.625 125.175781 944.296875 124.5625 C 943.972656 123.949219 943.675781 123.324219 943.410156 122.679688 C 943.144531 122.039062 942.910156 121.386719 942.707031 120.722656 C 942.503906 120.054688 942.335938 119.382812 942.203125 118.703125 C 942.066406 118.019531 941.964844 117.335938 941.894531 116.644531 C 941.828125 115.953125 941.792969 115.257812 941.792969 114.5625 C 941.792969 113.871094 941.828125 113.175781 941.894531 112.484375 C 941.964844 111.792969 942.066406 111.105469 942.203125 110.425781 C 942.335938 109.746094 942.503906 109.070312 942.707031 108.40625 C 942.910156 107.742188 943.140625 107.089844 943.410156 106.445312 C 943.675781 105.804688 943.972656 105.179688 944.296875 104.566406 C 944.625 103.953125 944.984375 103.355469 945.367188 102.78125 C 945.753906 102.203125 946.167969 101.644531 946.609375 101.109375 C 947.050781 100.570312 947.515625 100.054688 948.007812 99.566406 C 948.496094 99.074219 949.011719 98.609375 949.546875 98.167969 C 950.085938 97.726562 950.644531 97.3125 951.21875 96.925781 C 951.796875 96.542969 952.394531 96.183594 953.007812 95.855469 C 953.617188 95.53125 954.246094 95.234375 954.886719 94.96875 C 955.53125 94.703125 956.183594 94.46875 956.847656 94.265625 C 957.511719 94.0625 958.183594 93.894531 958.867188 93.761719 C 959.546875 93.625 960.234375 93.523438 960.925781 93.453125 C 961.617188 93.386719 962.308594 93.351562 963.003906 93.351562 C 963.699219 93.351562 964.390625 93.386719 965.082031 93.453125 C 965.773438 93.523438 966.460938 93.625 967.144531 93.761719 C 967.824219 93.894531 968.496094 94.0625 969.160156 94.265625 C 969.828125 94.46875 970.480469 94.699219 971.121094 94.96875 C 971.765625 95.234375 972.390625 95.53125 973.003906 95.855469 C 973.617188 96.183594 974.210938 96.542969 974.789062 96.925781 C 975.367188 97.3125 975.925781 97.726562 976.460938 98.167969 C 977 98.609375 977.511719 99.074219 978.003906 99.566406 Z M 978.003906 99.566406 " fill-opacity="1" fill-rule="nonzero"/></svg>